<svg xmlns="http://www.w3.org/2000/svg" version="1.1" xmlns:xlink="http://www.w3.org/1999/xlink" xmlns:svgjs="http://svgjs.dev/svgjs" width="2000" height="448" viewBox="0 0 2000 448"><g transform="matrix(1,0,0,1,-2.462184873949809,-0.29400000000003956)"><svg viewBox="0 0 357 80" data-background-color="#ffffff" preserveAspectRatio="xMidYMid meet" height="448" width="2000" xmlns="http://www.w3.org/2000/svg" xmlns:xlink="http://www.w3.org/1999/xlink"><g id="tight-bounds" transform="matrix(1,0,0,1,0.43950000000003797,0.052500000000009095)"><svg viewBox="0 0 356.12052 79.89476597959901" height="79.89476597959901" width="356.12052"><g><svg viewBox="0 0 356.12052 79.89476597959901" height="79.89476597959901" width="356.12052"><g><svg viewBox="0 0 356.12052 79.89476597959901" height="79.89476597959901" width="356.12052"><g><path d="M0 79.895v-79.895h356.121v79.895z" fill="#ffffff" stroke="transparent" stroke-width="0" rx="0%" data-fill-palette-color="tertiary"></path><path d="M3.283 76.611v-73.328h349.554v73.328z" fill="#000000" stroke="transparent" stroke-width="0" rx="0%" data-fill-palette-color="quaternary"></path><path d="M9.85 70.045v-60.195h336.421v60.195z" fill="#ffffff" stroke="transparent" stroke-width="0" data-fill-palette-color="tertiary"></path></g><g transform="matrix(1,0,0,1,19.69974,19.69974)" id="textblocktransform"><svg viewBox="0 0 316.72104 40.49528597959902" height="40.49528597959902" width="316.72104" id="textblock"><g><svg viewBox="0 0 316.72104 40.49528597959902" height="40.49528597959902" width="316.72104"><g transform="matrix(1,0,0,1,0,0)"><svg width="316.72104" viewBox="3.85 -36 284.27 36.35" height="40.49528597959902" data-palette-color="#efefef"><path d="M3.85 0L3.85-36 7.65-36 7.65-14.15 9.95-14.15 19.8-25 25.1-25 13.3-12.5 25.15 0 19.8 0 9.95-10.9 7.65-10.9 7.65 0 3.85 0ZM48.35 0L44.9 0 44.6-4.5Q43.55-2.2 41.5-0.93 39.45 0.35 36.3 0.35L36.3 0.35Q33.6 0.35 31.7-0.5 29.8-1.35 28.77-2.93 27.75-4.5 27.75-6.65L27.75-6.65Q27.75-9.8 30.1-11.83 32.45-13.85 36.9-14.3L36.9-14.3 44.6-15.15 44.6-17.15Q44.6-19.25 43.05-20.53 41.5-21.8 38.85-21.8L38.85-21.8Q36.25-21.8 34.52-20.6 32.8-19.4 32.15-17.15L32.15-17.15 28.75-18.35Q29.75-21.65 32.42-23.5 35.1-25.35 38.95-25.35L38.95-25.35Q43.4-25.35 45.87-23.08 48.35-20.8 48.35-16.9L48.35-16.9 48.35 0ZM44.6-11.15L44.6-11.95 36.85-11.05Q34.35-10.75 33.05-9.68 31.75-8.6 31.75-6.85L31.75-6.85Q31.75-5.1 33.02-4.05 34.3-3 36.7-3L36.7-3Q39.45-3 41.2-4.1 42.95-5.2 43.77-7.08 44.6-8.95 44.6-11.15L44.6-11.15ZM59.4-19.9L59-19.95Q60.09-22.25 62.45-23.8 64.8-25.35 68.4-25.35L68.4-25.35Q71.84-25.35 74.42-23.75 77-22.15 78.42-19.28 79.84-16.4 79.84-12.5L79.84-12.5Q79.84-8.6 78.4-5.7 76.95-2.8 74.37-1.23 71.8 0.35 68.4 0.35L68.4 0.35Q65 0.35 62.75-1.1 60.5-2.55 59.34-4.65L59.34-4.65 59.09 0 55.65 0 55.65-36 59.4-36 59.4-19.9ZM75.8-12.5L75.8-12.5Q75.8-16.8 73.57-19.33 71.34-21.85 67.59-21.85L67.59-21.85Q65.25-21.85 63.37-20.73 61.5-19.6 60.45-17.53 59.4-15.45 59.4-12.5L59.4-12.5Q59.4-9.55 60.45-7.45 61.5-5.35 63.37-4.25 65.25-3.15 67.59-3.15L67.59-3.15Q71.34-3.15 73.57-5.68 75.8-8.2 75.8-12.5ZM105.04 0L101.59 0 101.29-4.5Q100.24-2.2 98.19-0.93 96.14 0.35 92.99 0.35L92.99 0.35Q90.29 0.35 88.39-0.5 86.49-1.35 85.47-2.93 84.44-4.5 84.44-6.65L84.44-6.65Q84.44-9.8 86.79-11.83 89.14-13.85 93.59-14.3L93.59-14.3 101.29-15.15 101.29-17.15Q101.29-19.25 99.74-20.53 98.19-21.8 95.54-21.8L95.54-21.8Q92.94-21.8 91.22-20.6 89.49-19.4 88.84-17.15L88.84-17.15 85.44-18.35Q86.44-21.65 89.12-23.5 91.79-25.35 95.64-25.35L95.64-25.35Q100.09-25.35 102.57-23.08 105.04-20.8 105.04-16.9L105.04-16.9 105.04 0ZM101.29-11.15L101.29-11.95 93.54-11.05Q91.04-10.75 89.74-9.68 88.44-8.6 88.44-6.85L88.44-6.85Q88.44-5.1 89.72-4.05 90.99-3 93.39-3L93.39-3Q96.14-3 97.89-4.1 99.64-5.2 100.47-7.08 101.29-8.95 101.29-11.15L101.29-11.15ZM112.34 0L112.34-25 115.79-25 115.99-21.35Q116.99-22.7 118.42-23.65 119.84-24.6 121.57-24.98 123.29-25.35 125.24-25L125.24-25 125.24-21.25Q123.14-21.65 121.47-21.25 119.79-20.85 118.59-19.75 117.39-18.65 116.74-16.98 116.09-15.3 116.09-13.1L116.09-13.1 116.09 0 112.34 0ZM129.69-12.2L129.69-15.6 149.39-15.6 149.39-12.2 129.69-12.2ZM156.39 0L156.39-36 160.19-36 160.19-14.15 162.49-14.15 172.34-25 177.64-25 165.84-12.5 177.69 0 172.34 0 162.49-10.9 160.19-10.9 160.19 0 156.39 0ZM200.88 0L197.43 0 197.13-4.5Q196.08-2.2 194.03-0.93 191.98 0.35 188.83 0.35L188.83 0.35Q186.13 0.35 184.23-0.5 182.33-1.35 181.31-2.93 180.28-4.5 180.28-6.65L180.28-6.65Q180.28-9.8 182.63-11.83 184.98-13.85 189.43-14.3L189.43-14.3 197.13-15.15 197.13-17.15Q197.13-19.25 195.58-20.53 194.03-21.8 191.38-21.8L191.38-21.8Q188.78-21.8 187.06-20.6 185.33-19.4 184.68-17.15L184.68-17.15 181.28-18.35Q182.28-21.65 184.96-23.5 187.63-25.35 191.48-25.35L191.48-25.35Q195.93-25.35 198.41-23.08 200.88-20.8 200.88-16.9L200.88-16.9 200.88 0ZM197.13-11.15L197.13-11.95 189.38-11.05Q186.88-10.75 185.58-9.68 184.28-8.6 184.28-6.85L184.28-6.85Q184.28-5.1 185.56-4.05 186.83-3 189.23-3L189.23-3Q191.98-3 193.73-4.1 195.48-5.2 196.31-7.08 197.13-8.95 197.13-11.15L197.13-11.15ZM211.93-19.9L211.53-19.95Q212.63-22.25 214.98-23.8 217.33-25.35 220.93-25.35L220.93-25.35Q224.38-25.35 226.96-23.75 229.53-22.15 230.96-19.28 232.38-16.4 232.38-12.5L232.38-12.5Q232.38-8.6 230.93-5.7 229.48-2.8 226.91-1.23 224.33 0.35 220.93 0.35L220.93 0.35Q217.53 0.35 215.28-1.1 213.03-2.55 211.88-4.65L211.88-4.65 211.63 0 208.18 0 208.18-36 211.93-36 211.93-19.9ZM228.33-12.5L228.33-12.5Q228.33-16.8 226.11-19.33 223.88-21.85 220.13-21.85L220.13-21.85Q217.78-21.85 215.91-20.73 214.03-19.6 212.98-17.53 211.93-15.45 211.93-12.5L211.93-12.5Q211.93-9.55 212.98-7.45 214.03-5.35 215.91-4.25 217.78-3.15 220.13-3.15L220.13-3.15Q223.88-3.15 226.11-5.68 228.33-8.2 228.33-12.5ZM257.58 0L254.13 0 253.83-4.5Q252.78-2.2 250.73-0.93 248.68 0.35 245.53 0.35L245.53 0.35Q242.83 0.35 240.93-0.5 239.03-1.35 238-2.93 236.98-4.5 236.98-6.65L236.98-6.65Q236.98-9.8 239.33-11.83 241.68-13.85 246.13-14.3L246.13-14.3 253.83-15.15 253.83-17.15Q253.83-19.25 252.28-20.53 250.73-21.8 248.08-21.8L248.08-21.8Q245.48-21.8 243.75-20.6 242.03-19.4 241.38-17.15L241.38-17.15 237.98-18.35Q238.98-21.65 241.65-23.5 244.33-25.35 248.18-25.35L248.18-25.35Q252.63-25.35 255.1-23.08 257.58-20.8 257.58-16.9L257.58-16.9 257.58 0ZM253.83-11.15L253.83-11.95 246.08-11.05Q243.58-10.75 242.28-9.68 240.98-8.6 240.98-6.85L240.98-6.85Q240.98-5.1 242.25-4.05 243.53-3 245.93-3L245.93-3Q248.68-3 250.43-4.1 252.18-5.2 253-7.08 253.83-8.95 253.83-11.15L253.83-11.15ZM264.88 0L264.88-25 268.33-25 268.53-21.35Q269.53-22.7 270.95-23.65 272.38-24.6 274.1-24.98 275.83-25.35 277.78-25L277.78-25 277.78-21.25Q275.68-21.65 274-21.25 272.33-20.85 271.13-19.75 269.93-18.65 269.28-16.98 268.63-15.3 268.63-13.1L268.63-13.1 268.63 0 264.88 0ZM283.62 0L283.62-25 287.32-25 287.32 0 283.62 0ZM285.52-30L285.52-30Q284.37-30 283.62-30.75 282.87-31.5 282.87-32.6L282.87-32.6Q282.87-33.75 283.62-34.5 284.37-35.25 285.52-35.25L285.52-35.25Q286.57-35.25 287.35-34.5 288.12-33.75 288.12-32.6L288.12-32.6Q288.12-31.5 287.35-30.75 286.57-30 285.52-30Z" opacity="1" transform="matrix(1,0,0,1,0,0)" fill="#000000" class="wordmark-text-0" data-fill-palette-color="quaternary" id="text-0"></path></svg></g></svg></g></svg></g></svg></g><g></g></svg></g><defs></defs></svg><rect width="356.12052" height="79.89476597959901" fill="none" stroke="none" visibility="hidden"></rect></g></svg></g></svg>